PathFileType	4	(X/Y/Z)	s08c0101.trc
DataRate	CameraRate	NumFrames	NumMarkers	Units	OrigDataRate	OrigDataStartFrame	OrigNumFrames
200	200	4	50	mm	200	1250	2000
Frame#	Time	racr			lacr			c7			jug			rlel			rdr			llel			ldr			s2			lic			ric			lasi			rasi			rpsi			lpsi			rgt			lgt			rth1			rth2			rth3			rth4			rlfc			rmfc			rsh1			rsh2			rsh3			rsh4			rlmal			rmmal			rcal			rtoe			rmt5			lth1			lth2			lth4			lth3			llfc			lmfc			llmal			lmmal			lcal			lmt5			lsh1			lsh2			lsh3			lsh4			ltoe			SBIKE			LBIKE			RBIKE			
		X1	Y1	Z1	X2	Y2	Z2	X3	Y3	Z3	X4	Y4	Z4	X5	Y5	Z5	X6	Y6	Z6	X7	Y7	Z7	X8	Y8	Z8	X9	Y9	Z9	X10	Y10	Z10	X11	Y11	Z11	X12	Y12	Z12	X13	Y13	Z13	X14	Y14	Z14	X15	Y15	Z15	X16	Y16	Z16	X17	Y17	Z17	X18	Y18	Z18	X19	Y19	Z19	X20	Y20	Z20	X21	Y21	Z21	X22	Y22	Z22	X23	Y23	Z23	X24	Y24	Z24	X25	Y25	Z25	X26	Y26	Z26	X27	Y27	Z27	X28	Y28	Z28	X29	Y29	Z29	X30	Y30	Z30	X31	Y31	Z31	X32	Y32	Z32	X33	Y33	Z33	X34	Y34	Z34	X35	Y35	Z35	X36	Y36	Z36	X37	Y37	Z37	X38	Y38	Z38	X39	Y39	Z39	X40	Y40	Z40	X41	Y41	Z41	X42	Y42	Z42	X43	Y43	Z43	X44	Y44	Z44	X45	Y45	Z45	X46	Y46	Z46	X47	Y47	Z47	X48	Y48	Z48	X49	Y49	Z49	X50	Y50	Z50	
1250	6.2500	577.346547	1349.308409	-95.483929	576.272259	1344.345616	-419.606191	549.953206	1417.737928	-261.530314	501.782448	1264.996524	-254.984107	596.710294	1108.381802	26.783557	787.831095	888.961225	-58.967161	573.678174	1074.864575	-518.814761	790.577561	903.465032	-434.598312	-9.695128	1212.507054	-240.383902	140.840210	1208.382441	-402.434747	153.519041	1218.351844	-83.003274	170.380620	1168.410684	-360.873014	177.403334	1168.062519	-121.797041	23.359830	1254.290563	-189.780379	20.367908	1254.836577	-286.148868	92.742025	1107.559872	-47.067544	92.118699	1090.123279	-426.298104	222.842570	998.877484	-46.610583	302.901993	960.851840	-52.520686	351.538982	889.006482	-59.189950	324.892192	987.511489	-65.351470	424.363314	803.490081	-76.736046	404.387512	794.597610	-189.184523	319.759483	726.734826	-45.023988	276.843860	649.210527	-64.746309	204.336779	603.840326	-67.135081	300.799335	632.193316	-91.812645	115.273183	528.075972	-70.738920	141.954674	529.208455	-157.570882	41.133557	555.999259	-117.678955	243.954693	343.760892	-114.663901	160.915052	382.609794	-42.511623	178.385911	981.222828	-437.265530	248.520907	929.580914	-434.574365	276.485060	951.766449	-426.167178	283.908704	847.895699	-432.796690	351.679040	737.136672	-412.456308	357.228889	710.136914	-311.276277	315.692887	318.586159	-412.666349	336.592703	336.476756	-320.512509	250.822748	296.938913	-375.665844	458.534946	232.597543	-425.047891	338.532589	607.241870	-435.869786	354.598451	524.401997	-421.216419	328.325057	439.802564	-419.818020	376.524218	526.064311	-386.663138	538.568845	264.118649	-354.799044	-138.397811	945.648692	-231.227094	18.421112	79.881725	-428.858896	18.299541	80.476558	-31.532835	
1251	6.2550	575.962354	1349.607431	-92.564702	578.027492	1345.024688	-417.187264	550.137939	1418.023626	-258.972056	502.118336	1265.214026	-252.899963	596.439014	1108.302585	28.592318	787.925721	889.269630	-58.768408	576.979482	1076.395347	-519.199112	791.585650	903.105198	-434.728105	-8.723102	1211.912765	-244.005386	143.216406	1207.215106	-404.067398	151.744651	1218.829019	-84.784500	172.595580	1165.921880	-361.488312	176.920510	1169.018711	-123.536824	23.177251	1254.624009	-194.398929	21.306377	1253.974724	-289.476439	92.441690	1109.469259	-48.813135	93.298179	1087.963001	-427.786986	224.078726	1002.985603	-47.884011	304.758031	966.615855	-53.227781	354.919672	895.595450	-59.125739	326.366268	993.371697	-66.350799	429.405114	811.321951	-77.059405	409.526719	801.032645	-187.325923	324.628421	735.077337	-45.458055	281.312448	657.742203	-64.952554	208.520410	612.949654	-67.465857	305.192753	640.677189	-91.920552	119.342694	537.510003	-71.229653	146.814213	538.825148	-158.169802	44.772457	564.994951	-118.054969	249.340125	354.407387	-115.011727	166.116518	392.731365	-42.831804	177.517609	977.079780	-438.672742	246.257694	923.522651	-435.635016	274.760823	944.937181	-427.155799	279.309848	840.955931	-433.894484	343.990291	728.600584	-412.657449	348.146672	702.008599	-312.096015	311.455127	310.404736	-413.333888	336.740646	331.755092	-326.546227	246.961955	289.967341	-376.431811	453.962754	222.615867	-424.853725	331.678069	598.745030	-436.894998	348.547198	516.105678	-422.086422	323.176350	431.254471	-420.781532	370.275653	518.376448	-387.892496	534.191924	253.057922	-354.429835	-138.385362	945.650859	-231.502846	18.413147	80.003437	-428.984245	18.293141	80.499470	-31.564385	
1252	6.2600	574.576136	1350.011288	-89.767712	579.839956	1345.901489	-414.598235	550.282650	1418.343131	-256.481007	502.634146	1265.398474	-250.879290	596.250093	1108.280493	30.001734	787.999718	889.572419	-58.656069	580.283698	1078.198031	-519.364163	792.523423	902.745096	-434.906997	-7.776715	1211.321562	-247.423754	145.793215	1206.407072	-405.827663	149.867074	1219.586588	-86.539190	175.034077	1163.234279	-363.068029	176.311887	1170.214246	-125.174394	22.650497	1254.532206	-197.762947	22.773710	1253.549720	-293.074157	92.045364	1111.869190	-50.564742	94.377246	1085.965440	-429.249649	224.676496	1007.491418	-49.038752	306.565601	972.569386	-53.509331	357.924728	902.450671	-59.232484	327.398680	999.512486	-67.462991	434.248207	819.412224	-76.919580	415.283865	808.147184	-185.613541	329.417127	743.649213	-45.839518	285.604476	666.353854	-65.189854	212.828795	621.925382	-67.722917	310.032133	649.095628	-91.742989	123.634606	546.520136	-71.654911	150.430613	547.953913	-158.424449	48.589754	573.379897	-118.407647	255.379129	365.068010	-115.382881	171.857425	402.411416	-43.098061	176.352529	973.373552	-440.034248	243.557449	917.993406	-436.872369	272.578483	938.550928	-428.075504	274.416425	834.462415	-435.062787	336.097008	720.660377	-413.543814	338.461392	694.598170	-312.843602	306.656943	302.552989	-413.835986	336.564512	327.562654	-332.720598	242.668334	283.500621	-376.898673	448.738972	213.045346	-424.681956	324.003577	590.683702	-437.923851	341.903170	508.243416	-422.979123	317.416813	423.181779	-421.638890	363.551438	511.018990	-389.079580	529.274857	242.414408	-354.124591	-138.413379	945.671986	-231.674754	18.434743	79.876115	-428.891500	18.317290	80.508257	-31.581988	
1253	6.2650	573.461881	1350.826624	-86.401235	581.462553	1347.010668	-411.628447	550.412280	1418.738939	-253.882486	503.430462	1265.585890	-248.322743	596.191694	1108.292560	31.262679	788.066918	889.952150	-58.579568	583.520999	1080.273760	-519.399085	793.379037	902.408412	-435.147761	-7.231924	1210.873300	-250.589775	148.038755	1206.070904	-406.544131	147.795153	1220.596787	-88.273397	177.253218	1160.379592	-365.442245	175.622855	1171.736585	-126.809480	22.305999	1254.690560	-201.189662	23.741468	1253.193636	-296.770470	91.179960	1114.759370	-52.274997	95.307683	1084.257191	-430.631849	225.349020	1012.075833	-50.055394	307.937574	978.936386	-54.041504	360.630032	909.674842	-59.213839	328.306032	1006.154233	-68.284649	438.751920	827.659347	-76.608028	420.487839	816.272159	-184.679101	334.103518	752.343687	-45.983921	290.355540	674.816265	-65.022767	217.024321	631.119505	-67.712841	315.363923	657.326629	-91.611924	128.108993	555.152371	-72.043561	154.855041	556.936732	-158.653811	52.546780	581.175171	-118.641809	261.991460	375.600788	-115.625326	177.993151	411.878437	-43.312917	174.767518	970.082128	-441.614204	240.529293	912.836807	-438.093551	270.053647	932.634208	-429.069475	269.052264	828.556178	-436.437364	327.624405	713.225002	-414.495612	328.667451	687.584005	-313.907641	301.408597	295.317130	-414.253451	335.574890	323.524881	-338.382945	237.907005	277.583983	-377.046285	442.897638	203.809417	-424.547142	315.800740	583.191854	-438.950443	334.656666	500.988726	-424.061552	311.079238	415.520145	-422.560814	356.150599	503.946248	-389.929106	523.773171	232.150376	-353.995978	-138.467638	945.776764	-231.856315	18.415988	80.014803	-429.026042	18.340989	80.527233	-31.620944	
